<?xml version="1.0" encoding="iso-8859-1"?>
<!-- Generator: Adobe Illustrator 19.0.0, SVG Export Plug-In . SVG Version: 6.00 Build 0)  -->
<svg xmlns="http://www.w3.org/2000/svg" xmlns:xlink="http://www.w3.org/1999/xlink" version="1.1" id="Layer_1" x="0px" y="0px" viewBox="0 0 512 512" style="enable-background:new 0 0 512 512;" xml:space="preserve" width="512" height="512">
<linearGradient id="SVGID_1_" gradientUnits="userSpaceOnUse" x1="0" y1="256" x2="512" y2="256">
	<stop offset="0" style="stop-color:#00F2FE"/>
	<stop offset="0.0208" style="stop-color:#03EFFE"/>
	<stop offset="0.2931" style="stop-color:#24D2FE"/>
	<stop offset="0.5538" style="stop-color:#3CBDFE"/>
	<stop offset="0.7956" style="stop-color:#4AB0FE"/>
	<stop offset="1" style="stop-color:#4FACFE"/>
</linearGradient>
<path style="fill:url(#SVGID_1_);" d="M321.801,391.939c6.917,8.612,5.543,21.201-3.069,28.118  c-21.39,17.18-36.373,31.419-47.152,44.812c-3.796,4.717-9.525,7.46-15.58,7.46s-11.784-2.743-15.58-7.46  c-20.955-26.035-54.249-50.868-89.498-77.158C80.181,334.947,0,275.144,0,184.946c0-42.477,13.946-79.052,40.331-105.771  C65.485,53.701,100.171,39.672,138,39.672c66.135,0,100.331,34.03,117.372,62.577c0.211,0.354,0.421,0.709,0.628,1.063  c0.208-0.354,0.417-0.709,0.628-1.063C273.669,73.702,307.865,39.672,374,39.672c1.909,0,3.844,0.037,5.753,0.108  c11.038,0.416,19.648,9.701,19.232,20.739s-9.711,19.649-20.739,19.232c-1.409-0.053-2.838-0.08-4.247-0.08  c-38.028,0-65.962,14.494-83.025,43.079c-12.997,21.772-15.017,43.896-15.034,44.113c-0.802,10.419-9.491,18.464-19.941,18.464  s-19.139-8.045-19.941-18.464c-0.013-0.142-2.127-23.143-15.717-45.24C203.222,93.787,175.519,79.672,138,79.672  c-57.701,0-98,43.29-98,105.274c0,70.131,68.547,121.258,134.837,170.701c29.948,22.337,58.563,43.68,81.172,66.727  c10.239-10.418,22.583-21.382,37.674-33.503C302.296,381.952,314.884,383.328,321.801,391.939z M511.167,167.403  c-1.063-10.995-10.841-19.048-21.832-17.982c-10.995,1.063-19.045,10.838-17.982,21.832c0.43,4.446,0.648,9.053,0.648,13.693  c0,58.039-47.252,103.036-98.314,143.016c-8.697,6.81-10.227,19.38-3.418,28.077c3.945,5.039,9.822,7.671,15.761,7.671  c4.312,0,8.658-1.389,12.316-4.253c24.291-19.019,55.077-44.72,77.723-74.901C500.247,252.333,512,219.75,512,184.946  C512,179.026,511.72,173.124,511.167,167.403z M259.632,290.312c-5.411,0.227-10.565-1.705-14.51-5.418l-85.173-82.897  c-7.915-7.703-20.578-7.533-28.281,0.383c-7.704,7.915-7.533,20.578,0.383,28.281l85.269,82.991  c0.056,0.055,0.113,0.109,0.169,0.164c11.259,10.704,25.83,16.515,41.267,16.515c0.825,0,1.655-0.017,2.484-0.05  c16.353-0.658,31.37-7.734,42.287-19.926c0.238-0.266,0.468-0.537,0.691-0.814L493.591,73.855c6.918-8.611,5.547-21.2-3.063-28.118  c-8.612-6.919-21.199-5.547-28.118,3.063L273.428,283.998C269.816,287.86,264.935,290.099,259.632,290.312z"/>















</svg>
