<svg height="60pt" viewBox="0 0 60 60.273" width="60pt" xmlns="http://www.w3.org/2000/svg" xmlns:xlink="http://www.w3.org/1999/xlink"><linearGradient id="a"><stop offset="0" stop-color="#20d6de"/><stop offset="1" stop-color="#5e309d"/></linearGradient><linearGradient id="b" gradientUnits="userSpaceOnUse" x1="-1.8635" x2="64.2045" xlink:href="#a" y1="30.136" y2="30.136"/><linearGradient id="c" gradientUnits="userSpaceOnUse" x1="-1.8635" x2="64.2045" xlink:href="#a" y1="37.273" y2="37.273"/><linearGradient id="d" gradientUnits="userSpaceOnUse" x1="-1.8635" x2="64.2045" xlink:href="#a" y1="41.273" y2="41.273"/><linearGradient id="e" gradientUnits="userSpaceOnUse" x1="-1.8635" x2="64.2045" xlink:href="#a" y1="51.273" y2="51.273"/><linearGradient id="f" gradientUnits="userSpaceOnUse" x1="-1.8635" x2="64.2045" xlink:href="#a" y1="21.273" y2="21.273"/><path d="m57.136719 20.78125-27.015625-20.78125-9.984375 8.0625v-6.789062h-12v16.484374l-5 4.039063v32.476563h-3v6h60v-6h-3zm-47-9.507812h4v-2h-4v-2h2v-2h-2v-2h8v3h-2v2h2v1.40625l-8 6.460937zm-5 13.96875v-2.492188l25.015625-20.203125 24.984375 19.21875v3.476563l-25-19.230469zm0 27.03125h4v-2h-4v-22.507813l25-19.230469 25 19.230469v22.507813h-6v2h6v2h-15v-4h-3v-20h-14v20h-3v4h-15zm30-2h-10v-18h10zm3 2v2h-16v-2zm20 4v2h-56v-2zm0 0" fill="url(#b)"/><path d="m21.136719 30.273438h-14v14h14zm-2 6h-4v-4h4zm-6-4v4h-4v-4zm-4 6h4v4h-4zm6 4v-4h4v4zm0 0" fill="url(#c)"/><path d="m53.136719 30.273438h-14v14h14zm-2 6h-4v-4h4zm-6-4v4h-4v-4zm-4 6h4v4h-4zm6 4v-4h4v4zm0 0" fill="url(#c)"/><path d="m27.136719 40.273438h2v2h-2zm0 0" fill="url(#d)"/><path d="m11.136719 50.273438h2v2h-2zm0 0" fill="url(#e)"/><path d="m36.136719 27.273438v-12h-12v12zm-5-2v-3h3v3zm3-5h-3v-3h3zm-5-3v3h-3v-3zm-3 8v-3h3v3zm0 0" fill="url(#f)"/></svg>