<?xml version="1.0"?>
<svg xmlns="http://www.w3.org/2000/svg" xmlns:xlink="http://www.w3.org/1999/xlink" viewBox="0 0 64 64" width="512" height="512"><defs><linearGradient id="linear-gradient" y1="39.5" x2="63.388" y2="39.5" gradientUnits="userSpaceOnUse"><stop offset="0" stop-color="#7ed4ef"/><stop offset="0.229" stop-color="#66bfe6"/><stop offset="0.711" stop-color="#298bd0"/><stop offset="1" stop-color="#0169c2"/></linearGradient><linearGradient id="linear-gradient-2" y1="32" x2="63.388" y2="32" xlink:href="#linear-gradient"/></defs><g id="Gradient_outline" data-name="Gradient outline"><path d="M23,42a4.006,4.006,0,0,0-3-3.873V38a5.006,5.006,0,0,0-5-5,4.945,4.945,0,0,0-4.056,2.1,5.152,5.152,0,0,0-5.68,2.972A4,4,0,0,0,6,46H19A4,4,0,0,0,23,42ZM4,42a2,2,0,0,1,2-2H6a.2.2,0,0,1,.069,0,1.015,1.015,0,0,0,.938-.885A3.173,3.173,0,0,1,10,37a2.937,2.937,0,0,1,1.056.2,1,1,0,0,0,1.254-.5A2.99,2.99,0,0,1,18,38v1a1,1,0,0,0,1,1,2,2,0,0,1,0,4H6A2,2,0,0,1,4,42Z" style="fill:url(#linear-gradient)"/><path d="M57.74,14.044A7.153,7.153,0,0,0,51,10a8.072,8.072,0,0,0-4.469,1.31A16,16,0,0,0,16,18c0,7.865,7.189,20.328,11.681,27.35A27.122,27.122,0,0,0,7.534,60.576,1,1,0,0,0,8.44,62H55.56a1,1,0,0,0,.906-1.424A27.126,27.126,0,0,0,36.318,45.35C40.107,39.425,45.811,29.628,47.5,22H57c2.757,0,5-1.794,5-4C62,16,60.147,14.331,57.74,14.044ZM23.889,48.364l-.721,1.081a1,1,0,0,0,.125,1.262l.49.49-.678,1.356a1,1,0,0,0,.579,1.4l2.051.685L25.279,56H22a1,1,0,0,0-.8.4L18.5,60H10.068A25.157,25.157,0,0,1,23.889,48.364ZM53.932,60H34.388l.561-1.684a1,1,0,0,0-.633-1.264l-1.465-.49.629-.628,5.685-.948a1,1,0,0,0,.667-1.541l-1.274-1.911,1.758-.586a1.011,1.011,0,0,0,.391-.241L42.215,49.2A25.154,25.154,0,0,1,53.932,60ZM40.2,48.391l-.735.735-2.776.926a1,1,0,0,0-.516,1.5l1.142,1.713-4.475.746a1,1,0,0,0-.542.279l-2,2a1,1,0,0,0,.391,1.655l2.051.685L32.279,60H21l1.5-2H26a1,1,0,0,0,.949-.684l1-3a1,1,0,0,0-.633-1.264l-1.906-.636.485-.969a1,1,0,0,0-.188-1.154l-.42-.42,1.545-2.318-.009-.006c.68-.145,1.368-.258,2.062-.345,1.273,1.928,2.158,3.177,2.3,3.377a1,1,0,0,0,1.628,0c.132-.184,1.018-1.433,2.3-3.377A24.663,24.663,0,0,1,40.2,48.391ZM32,48.245C28.9,43.7,18,27.1,18,18a13.995,13.995,0,0,1,26.976-5.234A5.321,5.321,0,0,0,44.26,14H44a6.055,6.055,0,0,0-1.67.246,11,11,0,1,0,0,7.508A6.055,6.055,0,0,0,44,22h1.45C43.207,31.339,34.685,44.312,32,48.245Zm-1-21.3A9,9,0,0,1,31,9.059ZM33,9.062a8.968,8.968,0,0,1,7.525,6.072A3.653,3.653,0,0,0,39,18a3.653,3.653,0,0,0,1.525,2.866A8.968,8.968,0,0,1,33,26.938ZM57,20H44c-1.626,0-3-.916-3-2s1.374-2,3-2h1a1,1,0,0,0,.979-.793C46.371,13.349,48.483,12,51,12c2.414,0,4.57,1.382,5.024,3.218A1,1,0,0,0,57,16c1.626,0,3,.916,3,2S58.626,20,57,20Z" style="fill:url(#linear-gradient-2)"/></g></svg>
