<?xml version="1.0" encoding="iso-8859-1"?>
<!-- Generator: Adobe Illustrator 19.0.0, SVG Export Plug-In . SVG Version: 6.00 Build 0)  -->
<svg version="1.1" id="Capa_1" xmlns="http://www.w3.org/2000/svg" xmlns:xlink="http://www.w3.org/1999/xlink" x="0px" y="0px"
	 viewBox="0 0 480 480" style="enable-background:new 0 0 480 480;" xml:space="preserve">
<linearGradient id="SVGID_1_" gradientUnits="userSpaceOnUse" x1="-26.875" y1="618.576" x2="-26.875" y2="552.576" gradientTransform="matrix(8 0 0 -8 455 4941)">
	<stop  offset="0" style="stop-color:#006DF0"/>
	<stop  offset="1" style="stop-color:#00E7F0"/>
</linearGradient>
<path style="fill:url(#SVGID_1_);" d="M368,416H264v16h104v8c0,13.255-10.745,24-24,24H136c-13.255,0-24-10.745-24-24v-8h104v-16
	H112v-32H96v56c0.026,22.08,17.92,39.974,40,40h208c22.08-0.026,39.974-17.92,40-40V304h-16V416z"/>
<linearGradient id="SVGID_2_" gradientUnits="userSpaceOnUse" x1="-26.875" y1="618.576" x2="-26.875" y2="552.6" gradientTransform="matrix(8 0 0 -8 455 4941)">
	<stop  offset="0" style="stop-color:#006DF0"/>
	<stop  offset="1" style="stop-color:#00E7F0"/>
</linearGradient>
<path style="fill:url(#SVGID_2_);" d="M112,64h256v32h16V40c-0.026-22.08-17.92-39.974-40-40H136c-22.08,0.026-39.974,17.92-40,40
	v135.936h16V64z M136,16h208c13.255,0,24,10.745,24,24v8H112v-8C112,26.745,122.745,16,136,16z"/>
<g>
	
		<linearGradient id="SVGID_3_" gradientUnits="userSpaceOnUse" x1="-26.875" y1="618.576" x2="-26.875" y2="552.576" gradientTransform="matrix(8 0 0 -8 455 4941)">
		<stop  offset="0" style="stop-color:#006DF0"/>
		<stop  offset="1" style="stop-color:#00E7F0"/>
	</linearGradient>
	<path style="fill:url(#SVGID_3_);" d="M232,416h16v16h-16V416z"/>
	
		<linearGradient id="SVGID_4_" gradientUnits="userSpaceOnUse" x1="-26.875" y1="618.576" x2="-26.875" y2="552.576" gradientTransform="matrix(8 0 0 -8 455 4941)">
		<stop  offset="0" style="stop-color:#006DF0"/>
		<stop  offset="1" style="stop-color:#00E7F0"/>
	</linearGradient>
	<path style="fill:url(#SVGID_4_);" d="M232,24h16v16h-16V24z"/>
	
		<linearGradient id="SVGID_5_" gradientUnits="userSpaceOnUse" x1="-26.875" y1="618.576" x2="-26.875" y2="552.575" gradientTransform="matrix(8 0 0 -8 455 4941)">
		<stop  offset="0" style="stop-color:#006DF0"/>
		<stop  offset="1" style="stop-color:#00E7F0"/>
	</linearGradient>
	<path style="fill:url(#SVGID_5_);" d="M416,104H176c-13.255,0-24,10.745-24,24v56H64c-13.255,0-24,10.745-24,24v144
		c0,13.255,10.745,24,24,24h240c13.255,0,24-10.745,24-24v-56h88c13.255,0,24-10.745,24-24V128C440,114.745,429.255,104,416,104z
		 M312,352c0,4.418-3.582,8-8,8H64c-4.418,0-8-3.582-8-8V208c0-4.418,3.582-8,8-8h240c4.418,0,8,3.582,8,8V352z M424,272
		c0,4.418-3.582,8-8,8h-88v-72c0-13.255-10.745-24-24-24H168v-16h256V272z M168,136v-8c0-4.418,3.582-8,8-8h240c4.418,0,8,3.582,8,8
		v8H168z"/>
</g>
<linearGradient id="SVGID_6_" gradientUnits="userSpaceOnUse" x1="-24.875" y1="618.576" x2="-24.875" y2="552.5754" gradientTransform="matrix(8 0 0 -8 455 4941)">
	<stop  offset="0" style="stop-color:#006DF0"/>
	<stop  offset="1" style="stop-color:#00E7F0"/>
</linearGradient>
<path style="fill:url(#SVGID_6_);" d="M272,296c-5.923,0.021-11.627,2.245-16,6.24c-9.809-8.915-24.987-8.191-33.903,1.617
	c-8.915,9.809-8.191,24.987,1.617,33.903c9.154,8.32,23.132,8.32,32.285,0c9.809,8.915,24.987,8.19,33.903-1.618
	c8.915-9.809,8.19-24.987-1.618-33.903C283.83,298.191,278.018,295.964,272,296L272,296z M240,328c-4.418,0-8-3.582-8-8s3.582-8,8-8
	s8,3.582,8,8S244.418,328,240,328z M272,328c-4.418,0-8-3.582-8-8s3.582-8,8-8s8,3.582,8,8S276.418,328,272,328z"/>
<g>
	
		<linearGradient id="SVGID_7_" gradientUnits="userSpaceOnUse" x1="-44.875" y1="618.576" x2="-44.875" y2="552.576" gradientTransform="matrix(8 0 0 -8 455 4941)">
		<stop  offset="0" style="stop-color:#006DF0"/>
		<stop  offset="1" style="stop-color:#00E7F0"/>
	</linearGradient>
	<path style="fill:url(#SVGID_7_);" d="M80,232h32v16H80V232z"/>
	
		<linearGradient id="SVGID_8_" gradientUnits="userSpaceOnUse" x1="-38.875" y1="618.576" x2="-38.875" y2="552.576" gradientTransform="matrix(8 0 0 -8 455 4941)">
		<stop  offset="0" style="stop-color:#006DF0"/>
		<stop  offset="1" style="stop-color:#00E7F0"/>
	</linearGradient>
	<path style="fill:url(#SVGID_8_);" d="M128,232h32v16h-32V232z"/>
	
		<linearGradient id="SVGID_9_" gradientUnits="userSpaceOnUse" x1="-32.875" y1="618.576" x2="-32.875" y2="552.576" gradientTransform="matrix(8 0 0 -8 455 4941)">
		<stop  offset="0" style="stop-color:#006DF0"/>
		<stop  offset="1" style="stop-color:#00E7F0"/>
	</linearGradient>
	<path style="fill:url(#SVGID_9_);" d="M176,232h32v16h-32V232z"/>
	
		<linearGradient id="SVGID_10_" gradientUnits="userSpaceOnUse" x1="-26.875" y1="618.576" x2="-26.875" y2="552.576" gradientTransform="matrix(8 0 0 -8 455 4941)">
		<stop  offset="0" style="stop-color:#006DF0"/>
		<stop  offset="1" style="stop-color:#00E7F0"/>
	</linearGradient>
	<path style="fill:url(#SVGID_10_);" d="M224,232h32v16h-32V232z"/>
	
		<linearGradient id="SVGID_11_" gradientUnits="userSpaceOnUse" x1="-39.875" y1="618.576" x2="-39.875" y2="552.576" gradientTransform="matrix(8 0 0 -8 455 4941)">
		<stop  offset="0" style="stop-color:#006DF0"/>
		<stop  offset="1" style="stop-color:#00E7F0"/>
	</linearGradient>
	<path style="fill:url(#SVGID_11_);" d="M88,312h96v16H88V312z"/>
</g>
<g>
</g>
<g>
</g>
<g>
</g>
<g>
</g>
<g>
</g>
<g>
</g>
<g>
</g>
<g>
</g>
<g>
</g>
<g>
</g>
<g>
</g>
<g>
</g>
<g>
</g>
<g>
</g>
<g>
</g>
</svg>
